<svg xmlns="http://www.w3.org/2000/svg" viewBox="37.67910447761194 50.967999999999996 216.65485074626864 216.06" id="svg1" version="1.1" style="max-height: 500px" width="216.65485074626864" height="216.06">
  <defs id="defs1">
    <clipPath id="clipPath2" clipPathUnits="userSpaceOnUse">
      <path id="path2" clip-rule="evenodd" transform="scale(0.31999999)" d="M 0,0 H 928.125 V 865.625 H 0 Z" data-index="0"></path>
    </clipPath>
    <clipPath id="clipPath4" clipPathUnits="userSpaceOnUse">
      <path id="path4" clip-rule="evenodd" transform="matrix(0.74886645,0,0,0.74886645,-91.013497,-99.149754)" d="m 121.53502,132.39978 h 668.75 v 668.75 h -668.75 z" data-index="1" style="visibility: visible;"></path>
    </clipPath>
    <clipPath id="clipPath5" clipPathUnits="userSpaceOnUse">
      <path id="path5" transform="matrix(0.4949808,0,0,0.4949808,-0.24980422,-182.41967)" d="M 0,0 H 421 V 583 H 0 Z" data-index="2"></path>
    </clipPath>
    <clipPath id="clipPath7" clipPathUnits="userSpaceOnUse">
      <path id="path7" clip-rule="evenodd" transform="matrix(0.31999999,0,0,0.31999999,0,9.7200127)" d="M 0,0 H 928.125 V 865.625 H 0 Z" data-index="3"></path>
    </clipPath>
    <clipPath id="clipPath8" clipPathUnits="userSpaceOnUse">
      <path id="path8" transform="matrix(0.39521905,0,0,0.39521905,-0.19963283,-182.13858)" d="M 0,0 H 54 V 730 H 0 Z" data-index="4" style="visibility: visible;"></path>
    </clipPath>
    <clipPath id="clipPath10" clipPathUnits="userSpaceOnUse">
      <path id="path10" clip-rule="evenodd" transform="matrix(0.31999999,0,0,0.31999999,0,9.7200127)" d="M 0,0 H 928.125 V 865.625 H 0 Z" data-index="5"></path>
    </clipPath>
  </defs>
  <g id="g1">
    
    <path clip-path="url(#clipPath4)" transform="matrix(0.42731249,0,0,0.42731249,38.891204,52.087941)" style="fill: rgb(255, 248, 233); fill-opacity: 1; fill-rule: nonzero; stroke: none; visibility: visible;" d="M 250,0 C 388.10001,0 500,111.9 500,250 500,388.10001 388.10001,500 250,500 111.89999,500 0,388.10001 0,250 0,111.89999 111.9,0 250,0 Z" id="path3" data-index="7"></path>
    <g clip-path="url(#clipPath7)" id="g6">
      <path id="path6" clip-path="url(#clipPath5)" transform="matrix(0.6464897,0,0,0.6464897,68.641493,173.41245)" aria-label="G" style="fill: rgb(174, 147, 83); fill-opacity: 1; fill-rule: nonzero; stroke: none; visibility: visible;" d="m 204.17824,-27.795943 c 0.99697,0.24169 1.65558,0.791534 1.98186,1.643491 0.24169,0.918421 -0.0846,1.691829 -0.96676,2.320222 -1.83684,1.244703 -3.69181,2.483364 -5.55887,3.722024 -4.51355,3.033208 -8.97877,6.102669 -13.38961,9.208384 -3.03321,2.1933349 -6.06642,4.3987548 -9.11171,6.6223014 -2.07853,1.5468151 -4.12685,3.0634189 -6.13892,4.54376925 -1.72809,1.16011125 -2.74922,2.83381355 -3.06946,5.02714895 -1.37159,8.6162434 -3.41992,17.1237264 -6.13893,25.5224484 -7.17214,20.960552 -19.17809,38.622038 -36.01178,52.978415 -3.09363,2.719011 -6.40478,5.009023 -9.93346,6.863992 -3.52867,1.848928 -7.39571,3.129884 -11.60111,3.842869 -3.8187,0.706943 -7.583019,0.471295 -11.286916,-0.700901 -5.993908,-2.2598 -8.960651,-6.561879 -8.894186,-12.906238 0.253774,-3.419911 1.190322,-6.646471 2.803602,-9.691763 1.413886,-2.85194 3.033208,-5.546782 4.857966,-8.072441 1.818716,-2.531701 3.782446,-5.015064 5.897232,-7.444047 4.652532,-5.317177 9.522582,-10.453086 14.598072,-15.395644 5.08757,-4.9486 10.27181,-9.782397 15.54065,-14.501391 8.71292,-7.915343 17.76421,-15.323137 27.14177,-22.2354664 3.432,-2.404814 5.17821,-5.6313735 5.24467,-9.691763 0.14502,-3.1057146 0.37462,-6.2174716 0.7009,-9.3292286 0.24169,-1.752251 0.43505,-3.564925 0.58006,-5.438021 0,-0.773408 -0.0423,-1.643491 -0.12085,-2.610251 0,-0.513591 0,-1.039266 0,-1.570984 -0.83987,0.453169 -1.49847,0.990929 -1.98185,1.619322 -0.4713,0.616309 -0.81571,1.232618 -1.03927,1.861012 -0.24169,0.290028 -0.43504,0.628394 -0.58005,1.015097 -6.52563,10.7310299 -14.87601,19.75210358 -25.03907,27.0450949 -4.33834,3.1057146 -8.89419,5.5346971 -13.67965,7.2748641 -4.78546,1.752252 -9.86094,2.706927 -15.22646,2.851941 C 97.16402,16.753539 91.115731,15.623639 85.605203,13.194656 80.094674,10.777757 75.07961,7.2067896 70.572094,2.4877953 65.702043,-2.5514381 61.98002,-8.1223892 59.406023,-14.212973 c -2.580039,-6.090585 -4.205404,-12.628295 -4.882135,-19.625216 -0.24169,-2.573997 -0.362535,-5.147994 -0.362535,-7.709907 -0.08459,-0.99697 -0.120845,-2.042279 -0.120845,-3.141968 -0.06647,-1.546815 -0.870083,-2.392729 -2.416898,-2.537743 -1.033225,-0.175225 -2.09666,-0.338366 -3.190306,-0.48338 -3.885165,-0.561929 -7.728033,-1.172196 -11.528606,-1.836843 -6.368528,-1.268872 -12.495366,-3.105714 -18.392598,-5.510528 -5.885148,-2.398772 -11.6675777,-5.184248 -17.3533315,-8.362469 -0.38670375,-0.24169 -0.67673157,-0.555887 -0.87008345,-0.942591 -0.19335188,-0.398788 -0.1691829,-0.870083 0.072507,-1.401801 0.0785492,-0.24169 0.24773209,-0.471295 0.50754868,-0.7009 0.27190107,-0.223564 0.56192887,-0.410873 0.87008347,-0.555887 2.2537578,-0.640478 4.4289665,-0.416915 6.525626,0.676732 1.7885048,1.003012 3.5649248,1.933518 5.3413458,2.803602 11.564859,5.897232 23.794366,9.498411 36.688519,10.803536 1.722041,0.259817 2.857983,0.211479 3.407827,-0.145014 0.543802,-0.35045 0.96676,-1.341378 1.256788,-2.972785 0.241689,-1.160111 0.483379,-2.320222 0.725069,-3.480334 0.465253,-2.398772 1.051351,-4.737121 1.764336,-7.009005 2.785476,-9.697806 6.7794,-18.610119 11.987817,-26.730898 5.202374,-8.120778 11.721957,-15.353348 19.552709,-21.703748 12.036159,-9.69781 25.727889,-14.82767 41.087279,-15.39564 13.1298,-0.14502 22.29588,1.95768 27.5043,6.3081 5.20237,4.33833 6.87003,10.19327 5.00298,17.57085 -1.8731,7.365501 -6.88212,15.480238 -15.03311,24.338171 -4.35042,4.737121 -9.10566,8.870018 -14.2597,12.398689 -5.14195,3.528672 -10.62831,6.646471 -16.45908,9.353398 -14.35638,6.785442 -29.461991,10.918339 -45.316846,12.398689 -1.788505,0.145014 -3.570967,0.338366 -5.341345,0.580056 -1.160112,0.145014 -1.969773,0.410873 -2.416899,0.797576 -0.435042,0.386704 -0.652562,1.099689 -0.652562,2.126871 -0.145014,8.815637 1.075519,17.105599 3.673685,24.869886 2.592124,7.770328 7.190273,14.7612074 13.800491,20.9786789 1.335336,1.2567872 2.74318,2.380645 4.229572,3.3836579 9.776355,6.9727522 20.211314,8.1026522 31.298834,3.3836579 4.96069,-2.3383493 9.52258,-5.2144585 13.67965,-8.62832769 4.16915,-3.43199591 8.00597,-7.22652661 11.50443,-11.38359201 5.65555,-6.700851 9.99388,-13.903209 13.02709,-21.607073 3.02716,-7.715948 4.89422,-15.939445 5.6072,-24.676534 0,-0.06042 0.0363,-0.126887 0.12085,-0.193351 0.0604,-2.187294 0.29002,-4.326249 0.67673,-6.404782 0.53172,-3.347404 2.35043,-4.906304 5.46219,-4.664614 2.81569,0.06646 4.37459,1.655576 4.66461,4.76129 0.56193,5.123825 0.87613,10.295988 0.94259,15.516489 0.0604,11.715915 -0.51963,23.395578 -1.74016,35.045028 -0.0846,1.099689 -0.1571,2.223547 -0.21752,3.383658 0,0.290028 0.0302,0.5981827 0.0967,0.9184217 0.0786,0.3081546 0.2719,0.5317177 0.58006,0.6767316 0.22356,0 0.45921,0 0.7009,0 0.24169,0 0.43504,-0.072507 0.58005,-0.2175209 1.09365,-0.6283936 2.13292,-1.2809564 3.1178,-1.9576874 0.49547,-0.320239 0.9728,-0.634436 1.42597,-0.942591 1.23866,-0.851957 2.44107,-1.66766 3.60118,-2.441067 5.75222,-3.8187 11.50444,-7.625315 17.25666,-11.43193 0.99697,-0.706943 2.07853,-1.256788 3.23864,-1.643491 1.16011,-0.386704 2.40482,-0.459211 3.74619,-0.217521 z M 64.433172,-57.596302 c -0.259817,1.099689 -0.350451,2.223547 -0.265859,3.383658 0.06042,1.063435 0.640478,1.595153 1.740167,1.595153 2.640461,-0.290028 5.323219,-0.628394 8.048272,-1.015097 8.779384,-1.335337 17.280824,-3.462207 25.498279,-6.380612 8.229539,-2.912363 16.108629,-6.731063 23.637269,-11.456099 4.7492,-2.960701 9.11775,-6.308105 13.09959,-10.030129 3.99392,-3.722024 7.47426,-7.981808 10.441,-12.785393 6.92441,-11.262749 8.56186,-19.510409 4.9063,-24.749039 -3.6616,-5.23259 -11.98177,-7.08151 -24.96656,-5.5347 -6.49541,0.83987 -12.51953,2.62234 -18.0784,5.34135 -5.55886,2.72505 -10.743112,6.25372 -15.540656,10.58601 -7.625315,6.93046 -13.776321,14.664533 -18.465104,23.202227 -4.688784,8.543736 -8.04223,17.824627 -10.054298,27.842671 z M 117.99164,81.109504 c 21.0391,-18.114654 34.08431,-41.087275 39.12959,-68.929946 -1.16011,0.145014 -2.12687,0.465253 -2.90028,0.96676 -0.77341,0.513591 -1.48639,1.069477 -2.12687,1.66766 -0.21148,0.253774 -0.47734,0.447126 -0.79758,0.580055 -13.13584,10.664565 -25.58891,22.048157 -37.36525,34.150776 -5.83681,5.752219 -11.03918,11.963648 -15.613161,18.634288 -2.01811,3.045292 -3.570968,6.314147 -4.664614,9.812608 -0.567971,1.691829 -0.749239,3.323235 -0.555887,4.906304 0.193352,1.595153 0.924464,3.09363 2.199378,4.495431 1.305125,1.305125 2.761306,2.01811 4.374586,2.15104 1.625368,0.126887 3.311148,-0.13293 5.051318,-0.773408 4.97881,-1.691829 9.40174,-4.247699 13.26877,-7.661568 z m 0,0" data-index="8"></path>
    </g>
    <g clip-path="url(#clipPath10)" id="g9">
      <path id="path9" clip-path="url(#clipPath8)" transform="matrix(0.80967753,0,0,0.80967753,197.28163,178.31353)" aria-label="." style="fill: rgb(53, 94, 59); fill-opacity: 1; fill-rule: nonzero; stroke: none; visibility: visible;" d="m 10.111578,-12.543298 c 2.894671,0 3.917455,1.399091 3.068351,4.1876238 -0.385956,1.0951505 -0.824981,2.1179342 -1.312251,3.0683511 -0.463147,0.8394546 -1.119272,1.3894421 -1.9683758,1.6596114 C 9.0501987,-3.3575425 8.1480263,-3.4202603 7.1976094,-3.8206898 6.4256971,-4.1294547 6.0011454,-4.6746177 5.9239542,-5.4610033 5.8564118,-6.6960629 5.8950074,-7.9600692 6.039741,-9.2626711 6.2809636,-11.588057 7.6414589,-12.683207 10.111578,-12.543298 Z m 0,0" data-index="9"></path>
    </g>
    <g id="g10">
      
    </g>
  </g>
</svg>