<?xml version="1.0"?>
<svg xmlns="http://www.w3.org/2000/svg" viewBox="526.1718907987866 334.619978 1983.0293225480282 1034.2799320000001" id="svg1" version="1.1" style="max-height: 500px;background-color:transparent;" width="1983.0293225480282" height="1034.2799320000001">
  <defs id="defs1">
    <clipPath id="clipPath2" clipPathUnits="userSpaceOnUse">
      <path id="path2" clip-rule="evenodd" transform="scale(0.31999999)" d="M 0,0 H 9400 V 4753.125 H 0 Z"/>
    </clipPath>
    <clipPath id="clipPath3" clipPathUnits="userSpaceOnUse">
      <path id="path3" transform="matrix(0.22270307,0,0,0.22270307,-0.49914869,-565.00429)" d="M 0,0 H 6193 V 4001 H 0 Z"/>
    </clipPath>
    <clipPath id="clipPath4" clipPathUnits="userSpaceOnUse">
      <path id="path4" transform="matrix(0.31999999,0,0,0.31999999,531.83998,129.87991)" d="M 0,0 H 6193 V 4001 H 0 Z"/>
    </clipPath>
    <clipPath id="clipPath5" clipPathUnits="userSpaceOnUse">
      <path id="path5" transform="matrix(0.23202801,0,0,0.23202801,-555.81066,-715.00897)" d="M 0,0 H 6193 V 4001 H 0 Z"/>
    </clipPath>
    <clipPath id="clipPath8" clipPathUnits="userSpaceOnUse">
      <path id="path8" clip-rule="evenodd" transform="matrix(0.31999999,0,0,0.31999999,0,9.5599143)" d="M 0,0 H 9400 V 4753.125 H 0 Z"/>
    </clipPath>
  </defs>
  <g id="g1">
    <path clip-path="url(#clipPath2)" transform="translate(0,9.5599143)" style="fill:none;fill-opacity:1;fill-rule:nonzero;stroke:none" d="M 0,0 H 3008 V 1521 H 0 Z" id="path1"/>
    <g clip-path="url(#clipPath8)" id="g7">
      <g id="g6" clip-path="url(#clipPath4)">
        <path id="path6" clip-path="url(#clipPath3)" transform="matrix(1.4368908,0,0,1.4368908,532.5572,941.72937)" aria-label="Gather" style="fill:#ae9353;fill-opacity:1;fill-rule:nonzero;stroke:none" d="m 632.07317,-86.037473 c 3.05836,0.769347 5.08096,2.463 6.06779,5.078239 0.76119,2.843596 -0.22292,5.246788 -2.9469,7.209577 -5.68447,3.827709 -11.42332,7.652699 -17.21382,11.472253 -13.98418,9.395285 -27.80526,18.90475 -41.46322,28.522957 -9.39529,6.771891 -18.79057,13.598153 -28.18586,20.476068 -6.44566,4.8063848 -12.78259,9.5040278 -19.00805,14.09292894 -5.3501,3.61022556 -8.51992,8.79992486 -9.50403,15.57181606 -4.26268,26.655318 -10.5996,52.98441 -19.00805,78.989996 -22.17788,64.897068 -59.32406,119.575128 -111.43853,164.036908 -9.61277,8.41661 -19.88343,15.49026 -30.80654,21.22639 -10.92582,5.7334 -22.89013,9.69432 -35.89564,11.88547 -11.79576,2.18027 -23.43113,1.47073 -34.9061,-2.13134 -18.56765,-6.99753 -27.74002,-20.32927 -27.52253,-39.99521 0.76119,-10.59145 3.65372,-20.58481 8.67759,-29.9801 4.37141,-8.85157 9.3681,-17.18663 14.99548,-24.99972 5.62467,-7.80766 11.71692,-15.48211 18.27949,-23.02063 14.41915,-16.50156 29.49347,-32.3996 45.22568,-47.69412 15.7295,-15.28909 31.73628,-30.25739 48.02035,-44.899464 26.98155,-24.475046 55.00429,-47.416833 84.06824,-68.822644 10.59688,-7.4324974 16.00678,-17.4258628 16.22427,-29.99097 0.43496,-9.61277 1.1445,-19.228257 2.13133,-28.849182 0.7612,-5.458835 1.35928,-11.083502 1.79424,-16.876718 0,-2.397755 -0.10874,-5.072801 -0.32622,-8.02514 0,-1.636563 0,-3.275844 0,-4.915126 -2.61796,1.421798 -4.66502,3.088265 -6.14391,5.00212 -1.47345,1.908417 -2.53912,3.84402 -3.19701,5.806808 -0.76119,0.87809 -1.36471,1.919292 -1.80511,3.120888 -20.21237,33.209726 -46.04941,61.1264477 -77.51111,83.74201 -13.43504,9.612769 -27.55244,17.121386 -42.3549,22.531287 -14.80519,5.407183 -30.51022,8.329617 -47.1178,8.764584 C 300.77245,51.836172 282.03625,48.36731 264.9937,40.885879 247.94843,33.404448 232.43642,22.339976 218.45224,7.6979017 203.37248,-7.9228484 191.84585,-25.155695 183.87237,-43.997919 c -7.97621,-18.847661 -13.0028,-39.087216 -15.08248,-60.721381 -0.76119,-7.97349 -1.14179,-15.94698 -1.14179,-23.92318 -0.21748,-3.05837 -0.32623,-6.27984 -0.32623,-9.66715 -0.21748,-4.80638 -2.72941,-7.42977 -7.5358,-7.8729 -3.16982,-0.54371 -6.44838,-1.03304 -9.84113,-1.46801 -12.01324,-1.7453 -23.92046,-3.65916 -35.72166,-5.74156 -19.668656,-3.9283 -38.625059,-9.60734 -56.871922,-17.03983 -18.241426,-7.42978 -36.153908,-16.06116 -53.7401654,-25.89141 -1.2043147,-0.76663 -2.1068711,-1.75074 -2.70766914,-2.9469 -0.60351663,-1.2016 -0.52196033,-2.6234 0.23923184,-4.26268 0.2229205,-0.76663 0.7448809,-1.50607 1.5658809,-2.21833 0.8182816,-0.70954 1.7181195,-1.28315 2.6967951,-1.71812 6.9948117,-1.96279 13.7150517,-1.25325 20.1607177,2.13134 5.573014,3.06108 11.091657,5.95633 16.550492,8.68846 35.83312,18.24143 73.688839,29.38202 113.569869,33.42721 5.35009,0.7612 8.86789,0.59808 10.55882,-0.48933 1.69637,-1.09286 2.98224,-4.15394 3.86033,-9.17781 0.76119,-3.61022 1.52511,-7.21501 2.29445,-10.8198 1.41908,-7.42978 3.22148,-14.63936 5.40447,-21.62873 8.63409,-30.0399 21.0089,-57.62496 37.12443,-82.75246 16.11552,-25.13293 36.29799,-47.53101 60.54739,-67.19152 37.25492,-30.04806 79.64517,-45.9461 127.17346,-47.69412 40.63951,-0.43497 69.01838,6.06779 85.13391,19.50826 16.11552,13.43505 21.27532,31.56773 15.48482,54.40349 -5.79322,22.83577 -21.30794,47.96326 -46.54146,75.37977 -13.44048,14.6448 -28.13693,27.43011 -44.0839,38.35321 -15.9497,10.92583 -32.93787,20.59297 -50.96725,29.00142 -44.46178,20.98172 -91.22073,33.76431 -140.27684,38.35321 -5.57573,0.43497 -11.09166,1.03305 -16.55049,1.79424 -3.60479,0.44313 -6.08954,1.26684 -7.45969,2.46844 -1.36471,1.19616 -2.04434,3.37915 -2.04434,6.54625 -0.43497,27.31593 3.36012,52.995287 11.38526,77.032648 8.03058,24.031923 22.26215,45.660654 42.692,64.8861927 4.15394,3.9364508 8.52536,7.4324973 13.11426,10.4935773 30.25738,21.623294 62.54009,25.119341 96.84539,10.482703 15.40326,-7.215014 29.55056,-16.1155247 42.44189,-26.70696967 12.89677,-10.59688233 24.75234,-22.34642633 35.56943,-35.24319633 17.47751,-20.75336 30.91527,-43.067164 40.31056,-66.941415 9.39528,-23.87153 15.18306,-49.29806 17.36605,-76.28232 0,-0.21749 0.11146,-0.43497 0.3371,-0.65245 0.21748,-6.77733 0.92431,-13.38883 2.12046,-19.8345 1.64472,-10.37396 7.27483,-15.18034 16.8876,-14.41915 8.73468,0.21748 13.54106,5.13261 14.41915,14.74538 1.7453,15.84911 2.72942,31.85589 2.9469,48.02035 0.21748,36.2708 -1.58491,72.432868 -5.40446,108.491628 -0.21749,3.387305 -0.43497,6.880633 -0.65245,10.482703 0,0.878089 0.10874,1.81055 0.32622,2.794662 0.21749,0.978676 0.81556,1.685497 1.79424,2.120464 0.65789,0 1.37015,0 2.13134,0 0.76663,0 1.37014,-0.217483 1.80511,-0.65245 3.38459,-1.962789 6.60606,-3.985385 9.66714,-6.067789 1.52782,-0.978676 3.00399,-1.96007 4.42579,-2.946901 3.82771,-2.623394 7.54124,-5.135328 11.14603,-7.535802 17.80374,-11.801197 35.61292,-23.599675 53.42481,-35.395435 3.05836,-2.188427 6.38858,-3.88208 9.99337,-5.078239 3.61022,-1.201596 7.48687,-1.424517 11.63536,-0.663324 z M 199.44418,-178.30484 c -0.76935,3.39275 -1.04392,6.89151 -0.82643,10.49358 0.21748,3.27857 2.02259,4.91513 5.41533,4.91513 8.19097,-0.86994 16.49069,-1.9057 24.90186,-3.11001 27.20718,-4.15394 53.53628,-10.73553 78.99,-19.7475 25.45916,-9.01741 49.82002,-20.84579 73.08532,-35.48243 14.75081,-9.1778 28.30003,-19.53002 40.64766,-31.05664 12.3449,-11.52663 23.10762,-24.717 32.28542,-39.57112 21.41396,-34.85444 26.46774,-60.39516 15.1586,-76.61942 -11.30915,-16.22427 -37.06734,-21.92778 -77.27188,-17.11595 -20.10363,2.61795 -38.76099,8.13388 -55.96937,16.55049 -17.20294,8.41117 -33.23691,19.33428 -48.09647,32.77476 -23.59696,21.40853 -42.65938,45.33443 -57.18728,71.78042 -14.52789,26.44055 -24.90729,55.17012 -31.13276,86.18869 z M 365.2862,251.0619 c 65.11455,-56.04549 105.4822,-127.17074 121.10567,-213.373028 -3.61022,0.434967 -6.61965,1.440828 -9.02556,3.02302 -2.40048,1.58763 -4.58347,3.311186 -6.54626,5.176107 -0.65245,0.761192 -1.47345,1.359272 -2.45756,1.794238 -40.64222,32.99768 -79.20748,68.235443 -115.7012,105.707843 -18.02395,17.80374 -34.13403,37.032 -48.3357,57.68749 -6.22819,9.39528 -11.03729,19.50011 -14.43003,30.31719 -1.74803,5.24135 -2.32164,10.31959 -1.71812,15.23472 0.6008,4.91513 2.87078,9.5584 6.80723,13.92982 4.03704,4.04519 8.56885,6.25536 13.59272,6.63324 5.0293,0.38332 10.22172,-0.40778 15.57181,-2.37057 15.40327,-5.24135 29.1156,-13.16318 41.137,-23.76007 z M 765.62977,-82.427248 c 1.2016,0.217484 2.0226,0.573613 2.45756,1.065669 0.44041,0.486619 0.93518,1.440828 1.47889,2.859908 0.43497,1.421798 -0.0598,3.118169 -1.47889,5.089113 -1.41364,1.965507 -2.72398,3.550418 -3.92557,4.752014 -8.96032,8.411173 -19.45118,13.435041 -31.46986,15.071604 -6.88063,0.986831 -13.76399,1.234219 -20.65006,0.739444 -6.88063,-0.492056 -13.65252,-2.158523 -20.31295,-5.00212 -4.80639,-2.397755 -9.28655,-1.688215 -13.44048,2.131338 -8.63409,7.867465 -17.64878,15.405985 -27.04407,22.618281 -4.80638,3.604788 -9.86016,6.608779 -15.1586,9.01469 -5.30116,2.400474 -11.06447,3.762464 -17.28993,4.088689 -18.23871,-0.326225 -25.44829,-9.226736 -21.62873,-26.70697 0.21748,-0.766629 0.48933,-1.370146 0.81556,-1.805113 5.24951,-14.20167 12.18723,-27.011447 20.81317,-38.429329 8.63409,-11.417882 19.5572,-20.94909 32.77476,-28.59908 8.74283,-5.13261 18.14084,-7.09539 28.19673,-5.8938 2.61524,0.54371 5.12717,1.52782 7.5358,2.9469 2.94962,1.4218 4.1485,3.71625 3.59935,6.88335 -0.21748,0.98684 -0.68235,1.83502 -1.39189,2.54456 -0.71226,0.71226 -1.44627,1.3919 -2.20746,2.04435 -0.43497,0.5437 -1.00858,0.92974 -1.71812,1.15266 -0.71226,0.21748 -1.4517,0.32622 -2.21833,0.32622 -7.21502,0.21749 -13.41601,2.32164 -18.60571,6.307024 -5.18426,3.988103 -9.90637,8.49273 -14.16905,13.516598 -4.80638,5.358249 -9.25936,11.260206 -13.35348,17.703154 -4.09685,6.445667 -7.45697,14.1473 -10.08036,23.107619 9.61277,-5.573014 17.15129,-11.091657 22.61828,-16.550492 1.19616,-1.201596 2.39503,-2.297169 3.59935,-3.284001 0.98411,-0.978675 1.97094,-1.851328 2.95777,-2.620675 4.80639,-4.48016 9.83026,-8.411174 15.07161,-11.798479 6.00798,-3.384586 11.96159,-5.078239 17.85539,-5.078239 5.89924,0 11.63809,2.403193 17.21382,7.209577 7.64726,6.771892 15.07432,9.422472 22.28118,7.949021 7.21229,-1.478887 13.93253,-4.018007 20.16072,-7.622795 6.3342,-3.819554 11.90722,-5.73069 16.7136,-5.73069 z m 118.49043,1.468014 c 2.39776,-1.962789 4.20015,-2.645143 5.40447,-2.044345 1.20159,0.603517 2.04706,1.805113 2.53368,3.610226 0.49205,1.799675 0.73944,3.572166 0.73944,5.31747 -0.21748,3.278564 -0.87537,6.4212 -1.96822,9.427909 -1.08742,3.001272 -1.84861,4.996683 -2.28358,5.980795 -0.33438,0.217484 -0.50021,0.326225 -0.50021,0.326225 -3.27856,8.411174 -8.46826,16.713605 -15.57182,24.912732 -7.09811,8.193689 -15.4522,14.79975 -25.06497,19.823618 -9.61277,5.0238681 -19.82905,7.2095769 -30.64342,6.5571265 -15.1885,-1.7453048 -27.29146,-7.5901735 -36.30886,-17.5291675 -9.01197,-9.944432 -15.78387,-21.827185 -20.31296,-35.645541 -4.53181,-13.823793 -7.56027,-27.45185 -9.09081,-40.886894 -4.04519,-33.21516 -5.24679,-66.64781 -3.61022,-100.2925 0.32622,-8.19913 0.59808,-16.39282 0.81556,-24.58651 0,-2.84087 0,-5.68175 0,-8.52535 0,-5.35009 -2.51194,-8.02514 -7.5358,-8.02514 -5.3501,0 -10.64854,-0.10874 -15.89804,-0.32622 -5.78507,0 -11.68159,0 -17.69229,0 -0.76662,0 -1.58762,0 -2.45756,0 -4.15393,0.43496 -8.03058,-0.27458 -11.63536,-2.13134 -1.63657,-0.76663 -3.00399,-1.80511 -4.09957,-3.11001 -1.09285,-1.31034 -1.642,-2.95234 -1.642,-4.926 0.21749,-1.85405 0.98412,-3.3275 2.29445,-4.41492 1.31306,-1.09285 2.95234,-1.642 4.91513,-1.642 6.99753,-0.21748 13.98962,-0.32622 20.97628,-0.32622 4.26268,0 8.47098,0 12.62492,0 5.45883,0 10.97747,-0.27458 16.55049,-0.82644 3.06108,-0.21749 4.96949,-2.01716 5.73069,-5.40447 0.44312,-4.04519 0.82643,-8.08494 1.15266,-12.1247 0.86993,-13.22299 1.79968,-26.44055 2.78379,-39.65811 0.76119,-9.1778 1.47073,-18.19249 2.13134,-27.04407 0,-0.32622 0,-0.59808 0,-0.81556 0,-1.85405 0.16311,-3.65644 0.48933,-5.40447 1.85405,-7.64726 6.9921,-11.25477 15.40871,-10.8198 7.20414,0.54371 11.19224,4.53181 11.96159,11.96159 0.21748,4.80639 0.21748,9.72151 0,14.74538 0,1.97366 0,3.99626 0,6.06779 0,0 -0.10874,0 -0.32623,0 -0.32622,5.57573 -0.60351,11.14603 -0.82643,16.7136 -0.97868,12.45637 -1.69094,25.07313 -2.13134,37.853 -0.43497,6.67131 0.16583,10.85243 1.80511,12.5488 1.63656,1.69093 6.06235,2.42494 13.27737,2.20746 13.54922,0.21748 27.03863,0.32622 40.47367,0.32622 9.61277,0 19.22826,0.10874 28.84918,0.32623 0.97868,0 1.9057,0 2.78379,0 2.39776,-0.21749 4.68949,-0.13321 6.87248,0.2501 2.18843,0.37788 4.37685,1.16898 6.568,2.37057 0.65245,0.66061 1.27771,1.34568 1.88123,2.05522 0.6008,0.7041 1.06567,1.65831 1.39189,2.85991 0,1.20431 -0.38603,2.19114 -1.15266,2.95777 -0.76119,0.7612 -1.46801,1.35927 -2.12046,1.79424 -4.37142,2.40863 -8.96032,3.39274 -13.7667,2.95778 -0.66061,0 -1.47889,0 -2.45757,0 -14.42731,0 -28.74044,0.10874 -42.94211,0.32622 -7.97621,0.21749 -16.00406,0.32623 -24.08629,0.32623 -0.54371,0 -1.03849,0 -1.47889,0 -3.60479,0 -7.3156,0.10874 -11.13515,0.32622 -3.93646,0.54371 -6.23091,2.72942 -6.88336,6.55713 -0.55186,2.18299 -0.82643,4.31161 -0.82643,6.38314 -0.86994,21.1992 -1.25053,42.42015 -1.14179,63.66828 0.10874,21.24814 1.47073,42.36307 4.08869,63.34206 2.18843,16.827788 6.61421,32.943313 13.27736,48.34658 3.60207,8.411173 7.99796,15.017233 13.19038,19.823618 5.1897,4.806385 11.00738,6.828981 17.45304,6.067789 12.01868,-1.962789 21.33513,-6.25265 27.94663,-12.864147 6.6115,-6.611498 12.2117,-13.739519 16.8006,-21.3895 4.36326,-7.429779 9.16964,-13.54922 14.41915,-18.355604 z m 189.4417,-0.326226 c 1.6366,0.434967 2.7539,1.555007 3.3492,3.36012 0.6008,1.805113 0.082,3.909265 -1.555,6.307021 -4.8063,6.445666 -11.9616,13.111534 -21.4656,19.997605 -9.504,6.880633 -19.8562,12.589574 -31.0566,17.126823 -11.195,4.531812 -21.955,6.388577 -32.28544,5.567577 -10.32503,-0.818282 -18.70902,-5.654571 -25.15197,-14.506148 -1.53054,-2.180272 -3.00671,-4.363262 -4.42579,-6.546252 -2.61795,-5.246789 -6.11128,-10.058611 -10.4827,-14.430028 -5.24951,-4.806385 -10.05589,-4.806385 -14.41915,0 -8.41661,9.177802 -15.13685,19.396807 -20.16072,30.654295 -2.40863,5.567576 -4.81182,11.086219 -7.20958,16.550492 -1.63928,4.148497 -3.33293,8.1338813 -5.07824,11.9615903 -4.26267,10.8143655 -11.80391,14.5306143 -22.61828,11.1460278 -5.35009,-1.9736625 -8.35408,-5.5811695 -9.01469,-10.8198026 -0.21748,-1.9627883 -0.21748,-3.9853845 0,-6.0677885 0,-0.761192 0,-1.525103 0,-2.294451 0.66061,-20.644618 1.37015,-41.291955 2.13134,-61.939292 1.41908,-48.838629 3.11273,-97.620169 5.07824,-146.344629 0.43497,-10.59688 0.76391,-21.19648 0.98955,-31.79608 0.76119,-20.8621 1.74259,-41.64808 2.9469,-62.35251 1.2016,-20.70443 3.00399,-41.37895 5.40446,-62.02629 1.2016,-8.19097 3.11546,-16.21883 5.74157,-24.08629 2.61524,-6.55985 7.06277,-11.14875 13.34261,-13.7667 6.28527,-2.6234 12.8424,-3.14264 19.67138,-1.55501 6.82898,1.58219 12.53792,5.37728 17.12682,11.38526 6.99481,10.04774 10.98292,21.19104 11.96159,33.42721 3.82771,38.24175 3.50149,74.73547 -0.97867,109.48118 -4.48016,34.74026 -12.23888,70.35318 -23.27073,106.83875 -6.44567,21.63417 -12.56511,40.53348 -18.35561,56.697941 -1.96551,5.249507 -3.65916,9.892779 -5.07824,13.929816 -2.40863,7.215014 -3.61022,11.722359 -3.61022,13.527472 0,1.799676 0.98411,1.769772 2.95777,-0.08699 11.79304,-12.562388 23.9993,-18.597555 36.61334,-18.105498 12.61948,0.494775 24.77681,7.94902 36.47198,22.368174 0.98411,1.421799 1.96823,2.897968 2.9469,4.425789 2.84088,3.822272 5.54583,6.935004 8.11214,9.340915 2.5663,2.400474 5.37727,3.822272 8.43834,4.262676 7.9735,1.196159 16.4662,-0.772066 25.4782,-5.904676 9.0174,-5.13261 17.9533,-11.194962 26.8048,-18.192492 9.1778,-7.20414 16.0612,-9.716074 20.6501,-7.535803 z M 926.39083,-378.0634 c -0.76119,-5.02387 -1.55229,-7.83484 -2.37057,-8.43836 -0.821,-0.6008 -1.63928,0.0544 -2.45756,1.96823 -0.821,1.90841 -1.53054,4.42035 -2.13134,7.5358 -0.60351,3.11001 -1.09557,6.00798 -1.47889,8.68846 -0.37787,2.67505 -0.67963,4.3388 -0.90255,4.99125 -1.19616,16.17533 -2.45213,36.74383 -3.76247,61.71093 -1.31305,24.96167 -2.57174,49.7276 -3.77333,74.30323 -0.97868,19.88614 -1.82415,36.79548 -2.53369,50.72802 -0.71226,13.9271 -1.34296,22.36545 -1.8921,25.31507 7.756,-21.19648 13.54378,-46.62301 17.36605,-76.28232 3.82771,-29.66475 5.98623,-58.31276 6.48101,-85.94947 0.49206,-27.64215 -0.35613,-49.16486 -2.54456,-64.57084 z m 167.16047,313.991757 c -0.2174,0 -0.4349,0 -0.6524,0 0,0 0.1087,0 0.3262,0 0,0 0.1088,0 0.3262,0 z m 114.7117,-16.561366 c 1.2016,-0.761192 3.1127,-1.658312 5.7307,-2.696795 2.6234,-1.035765 5.1353,-1.636563 7.5358,-1.805113 2.4059,-0.165831 4.1023,0.736725 5.0891,2.707669 0.7666,1.421798 0.9597,2.789226 0.5763,4.099564 -0.386,1.3049 -1.0711,2.452126 -2.0552,3.436238 -6.0025,6.554408 -15.3163,13.190373 -27.9357,19.910612 -12.6222,6.720239 -25.7066,12.646664 -39.2558,17.779274 -13.5438,5.132609 -24.7931,8.465544 -33.7534,9.993365 -10.2653,1.864921 -20.699,2.302606 -31.2959,1.315775 -13.0055,-1.636563 -22.6781,-7.01656 -29.0123,-16.137273 -6.3342,-9.12615 -8.9005,-19.369622 -7.6989,-30.730415 1.8568,-12.67113 7.6445,-22.74877 17.366,-30.230202 9.727,-7.48687 20.873,-10.24891 33.4381,-8.28612 7.6473,0.98683 14.585,3.77334 20.8132,8.36224 6.7692,5.458835 9.8003,11.741388 9.0908,18.844942 -0.7123,7.098117 -4.945,12.55967 -12.701,16.387379 -4.0398,1.965507 -8.5199,3.194289 -13.4405,3.686345 -4.9151,0.494775 -10.6513,0.46759 -17.203,-0.07612 0,0 -0.1631,0 -0.4893,0 -0.3262,0 -0.8455,0 -1.555,0 -0.7123,0 -1.4517,0 -2.2183,0 -1.9655,0 -3.2487,0.549146 -3.8495,1.642 -0.6035,1.087418 -0.6307,2.452126 -0.087,4.088689 3.6102,8.960319 10.6839,13.687866 21.2264,14.179923 10.5398,0.486619 22.5014,-1.506073 35.8848,-5.980796 13.3888,-4.480159 26.0898,-9.669859 38.1031,-15.571816 12.0187,-5.899239 21.2508,-10.874174 27.6965,-14.919365 z m -115.0379,-10.482703 c -1.6393,1.204314 -2.7593,2.598927 -3.3601,4.186556 -0.6035,1.582193 -0.9569,2.919716 -1.0657,4.01257 -0.1087,1.087418 0.054,1.739868 0.4894,1.957352 0.4349,0.217483 1.7969,0.519241 4.0887,0.902556 2.2971,0.386033 4.839,0.443123 7.6228,0.173987 2.7892,-0.274573 5.0836,-0.875371 6.8833,-1.805113 1.8051,-0.935179 2.4358,-2.601646 1.8921,-5.00212 -1.2043,-3.384586 -3.5287,-5.515924 -6.9703,-6.394014 -3.4363,-0.875371 -6.6306,-0.220202 -9.5802,1.968226 z m 262.5352,13.766703 c 4.037,-4.153934 7.6119,-5.790497 10.7219,-4.915126 3.1155,0.869934 5.0565,3.164384 5.8177,6.883352 0.7666,3.71353 -0.3235,7.862027 -3.2731,12.450928 -6.0107,8.851577 -14.479,18.385509 -25.4021,28.599076 -10.9258,10.216286 -22.6998,19.122234 -35.3193,26.7178445 -12.614,7.59017309 -24.5484,11.7114848 -35.7978,12.3639352 -22.8357,1.2015962 -33.5441,-9.721511 -32.1223,-32.7747587 0.2175,-3.058361 0.8183,-7.155206 1.8051,-12.287816 0.9787,-5.029305 1.7671,-9.895498 2.3706,-14.593141 0.6008,-4.697643 0.299,-7.864746 -0.9026,-9.504027 -1.5305,-1.41908 -3.2513,-2.131338 -5.1652,-2.131338 -1.9084,0 -3.9528,0.22292 -6.133,0.663324 -2.4087,0.543709 -4.6487,0.652451 -6.7203,0.326225 -11.1433,-1.201596 -16.9338,-6.940441 -17.3769,-17.213816 -0.2175,-14.201671 2.4059,-27.799823 7.8729,-40.799903 1.7453,-4.04519 5.0239,-6.72024 9.8303,-8.02514 4.8063,-1.31033 9.2321,-0.76663 13.2773,1.63113 2.6153,1.63928 3.8169,3.87936 3.5994,6.72024 -0.435,3.93645 -1.1473,7.81581 -2.1314,11.63536 -0.4349,1.63929 -0.8155,3.33294 -1.1418,5.07824 -2.0824,10.055896 -2.0552,15.275499 0.076,15.658814 2.1313,0.377877 6.8018,-2.327073 14.0168,-8.112134 5.3501,-3.82771 11.2466,-5.41534 17.6923,-4.76289 8.634,0.76935 12.1301,5.578453 10.4935,14.43003 -1.4218,6.0107 -2.8979,12.130141 -4.4258,18.355605 -3.2785,12.782591 -5.7905,25.671205 -7.5358,38.668561 -0.6606,8.851577 0.9189,14.01681 4.7412,15.495697 3.8277,1.473451 8.9331,0.570894 15.3217,-2.707669 6.394,-3.275845 13.1142,-7.671729 20.1607,-13.190372 7.0465,-5.524081 13.2719,-10.931263 18.6818,-16.224267 5.4072,-5.298441 9.0963,-9.150617 11.0699,-11.559247 0.9787,-1.201596 2.4794,-2.865344 4.502,-4.991245 2.0226,-2.131338 4.124,-4.289862 6.307,-6.481008 2.4059,-2.397755 4.1023,-4.200149 5.0891,-5.404464 z m 0,0"/>
      </g>
      <path id="path7" clip-path="url(#clipPath5)" transform="matrix(1.3791438,0,0,1.3791438,1298.3828,1115.9801)" aria-label="BY HUNTER COLLECTIVE" style="fill:#355e3b;fill-opacity:1;fill-rule:nonzero;stroke:none" d="m 30.589668,-50.222372 c 4.650757,1.518152 8.259201,4.007809 10.819666,7.466136 2.560465,3.46116 3.840698,8.84267 3.840698,16.144528 v 0.430521 c 0,2.469829 -0.237919,5.200237 -0.713758,8.191223 -0.475839,2.985322 -1.379366,5.851683 -2.707749,8.5990855 -1.322718,2.7502345 -3.146766,5.0048036 -5.472145,6.7637074 -2.328211,1.7532391 -5.341856,2.62844244 -9.040935,2.62844244 H 1.132986 V -1.4262448 c 0,0 0.424856,-0.1387863 1.2802327,-0.4191912 0.8610415,-0.2860697 1.7390772,-1.0224868 2.6397719,-2.2092512 0.8978624,-1.183932 1.441678,-3.1524315 1.631447,-5.9026659 V -89.637678 C 6.4946686,-92.38508 5.950853,-94.35358 5.0529906,-95.540344 4.1522959,-96.724276 3.2742602,-97.460693 2.4132187,-97.749595 1.557842,-98.035665 1.132986,-98.180116 1.132986,-98.180116 v -1.416187 h 21.775286 c 3.789715,0 6.967638,0.781735 9.528104,2.345205 2.56613,1.56347 4.582779,3.602779 6.049949,6.117927 1.472834,2.515147 2.540639,5.220064 3.206246,8.111917 0.662776,2.894685 1.042314,5.670411 1.13295,8.327177 v 0.135954 c 0,3.036304 -0.260579,6.310528 -0.781735,9.822671 -0.521157,3.506478 -1.637112,6.610759 -3.342201,9.312843 -1.707921,2.704916 -4.458155,4.438329 -8.247871,5.200237 z M 22.05856,-97.183121 h -6.26521 v 46.246991 h 7.398159 c 2.46983,0 4.435497,-0.968671 5.902666,-2.911679 1.472834,-1.948673 2.563298,-4.36752 3.274224,-7.262206 0.708093,-2.891853 1.181099,-5.761047 1.416186,-8.610414 0.240752,-2.846535 0.362544,-5.169082 0.362544,-6.967639 v -0.147283 c 0,-4.832029 -0.54948,-8.647236 -1.642777,-11.442788 -1.087631,-2.801217 -2.367864,-4.817867 -3.840698,-6.049949 -1.467169,-1.237748 -2.84087,-2.022315 -4.123935,-2.356535 -1.277401,-0.331388 -2.104454,-0.498498 -2.481159,-0.498498 z m 14.08256,68.441468 v -0.135954 c 0,-4.741392 -0.549481,-8.443304 -1.642777,-11.102903 -1.087631,-2.656766 -2.367864,-4.579947 -3.840698,-5.766712 -1.467169,-1.183932 -2.747402,-1.917517 -3.840698,-2.197922 -1.087631,-0.286069 -1.631447,-0.43052 -1.631447,-0.43052 h -9.39215 v 45.8164699 h 9.244866 c 2.7559,0 4.888677,-1.0649724 6.401164,-3.1949171 1.518152,-2.1356094 2.608616,-4.7470578 3.274224,-7.8286798 0.662775,-3.087287 1.067804,-6.030123 1.212255,-8.825675 0.141619,-2.801217 0.215261,-4.911335 0.215261,-6.333187 z M 63.739765,0.00127134 V -1.4262448 c 0,0 0.470174,-0.2605783 1.416187,-0.781735 0.951677,-0.5211567 1.903354,-1.6569384 2.855032,-3.4101774 0.951677,-1.7504067 1.427516,-4.4779818 1.427516,-8.1798938 V -51.36665 h 0.135954 L 55.627848,-85.79698 c -1.988326,-4.840526 -3.812375,-8.160067 -5.472145,-9.958625 -1.662603,-1.804221 -2.492489,-2.707748 -2.492489,-2.707748 l -0.147283,-1.13295 h 20.211816 l 0.283237,1.280233 c 0,0 -0.405029,0.237919 -1.212256,0.713758 -0.810059,0.470174 -1.591794,1.251909 -2.345205,2.345205 -0.756244,1.087632 -1.132949,2.580292 -1.132949,4.47515 0,0.665608 0.09347,1.424684 0.283237,2.277228 0.186937,0.855377 0.470174,1.756072 0.849712,2.707749 l 12.383136,29.739919 11.952615,-29.739919 c 0.186937,-0.761908 0.328556,-1.498326 0.419192,-2.209251 0.0963,-0.708094 0.147283,-1.39636 0.147283,-2.061968 0,-2.180927 -0.405029,-3.86619 -1.212256,-5.052954 -0.810059,-1.183932 -1.639944,-2.010985 -2.492488,-2.481159 -0.855377,-0.475839 -1.280233,-0.713758 -1.280233,-0.713758 l 0.147283,-1.280233 H 99.16709 l -0.135954,1.13295 c 0,0 -0.832718,1.141446 -2.492488,3.421507 -1.662604,2.274395 -3.203415,5.356017 -4.622434,9.244866 l -13.799322,34.86085 h 0.135954 v 37.138079 c 0,3.701912 0.470174,6.4294871 1.416186,8.1798938 0.951678,1.753239 1.903355,2.8890207 2.855033,3.4101774 0.951677,0.5211567 1.427516,0.781735 1.427516,0.781735 V 0.00127134 Z M 170.0274,-99.596303 v 1.416187 c 0,0 -0.47583,0.16711 -1.42751,0.498498 -0.94601,0.33422 -1.89203,1.186764 -2.8437,2.560465 -0.94602,1.376533 -1.41619,3.676421 -1.41619,6.899661 v 76.836623 c 0,3.135437 0.47017,5.4126651 1.41619,6.8316841 0.95167,1.4218514 1.89769,2.2970547 2.8437,2.6284424 0.95168,0.3342201 1.42751,0.4984977 1.42751,0.4984977 V 0.00127134 H 149.67964 V -1.4262448 c 0,0 0.47017,-0.1642776 1.41618,-0.4984977 0.95168,-0.3313877 1.89769,-1.183932 2.8437,-2.5604654 0.95168,-1.3737011 1.42752,-3.6735882 1.42752,-6.8996611 v -50.07636 h -16.64302 v 50.07636 c 0,3.135437 0.47017,5.4126651 1.41618,6.8316841 0.95168,1.4218514 1.89769,2.2970547 2.8437,2.6284424 0.95168,0.3342201 1.42752,0.4984977 1.42752,0.4984977 V 0.00127134 H 124.06365 V -1.4262448 c 0,0 0.47584,-0.1642776 1.42752,-0.4984977 0.95167,-0.3313877 1.89769,-1.183932 2.8437,-2.5604654 0.95168,-1.3737011 1.42752,-3.6735882 1.42752,-6.8996611 v -76.836623 c 0,-3.22324 -0.47584,-5.523128 -1.42752,-6.899661 -0.94601,-1.373701 -1.89203,-2.226245 -2.8437,-2.560465 -0.95168,-0.331388 -1.42752,-0.498498 -1.42752,-0.498498 v -1.416187 h 20.34777 v 1.416187 c 0,0 -0.47584,0.16711 -1.42752,0.498498 -0.94601,0.33422 -1.89202,1.234914 -2.8437,2.707748 -0.94601,1.472835 -1.41618,3.962491 -1.41618,7.466136 v 23.47471 h 16.64302 v -24.188468 c 0,-3.22324 -0.47584,-5.523128 -1.42752,-6.899661 -0.94601,-1.373701 -1.89202,-2.226245 -2.8437,-2.560465 -0.94601,-0.331388 -1.41618,-0.498498 -1.41618,-0.498498 v -1.416187 z M 198.34264,0.85098333 c -3.89168,0 -7.09226,-0.7845674 -9.60741,-2.34520503 -2.51515,-1.5634701 -4.50914,-3.5744551 -5.98197,-6.0386199 -1.46717,-2.4698294 -2.5548,-5.0302954 -3.2629,-7.6813964 -0.71092,-2.656766 -1.1641,-5.078445 -1.35954,-7.262205 -0.18976,-2.180927 -0.28323,-3.79538 -0.28323,-4.837694 0,-0.286069 0.0227,-0.50133 0.068,-0.645781 0.051,-0.141618 0.0793,-0.21526 0.0793,-0.21526 V -85.79698 c 0,-3.69908 -0.47584,-6.426655 -1.42752,-8.179894 -0.94601,-1.758904 -1.89202,-2.923009 -2.8437,-3.489484 -0.95168,-0.566475 -1.42751,-0.849712 -1.42751,-0.849712 v -1.280233 h 20.21181 v 1.280233 c 0,0 -0.45318,0.283237 -1.35954,0.849712 -0.90069,0.566475 -1.82405,1.73058 -2.77572,3.489484 -0.94602,1.753239 -1.41619,4.480814 -1.41619,8.179894 v 60.182267 c 0,4.177751 0.44751,8.094923 1.34821,11.748685 0.90636,3.648097 2.21208,6.5881 3.92,8.8143454 1.70509,2.2290778 3.7444,3.3422005 6.11793,3.3422005 2.6511,0 4.85186,-1.0649724 6.60509,-3.1949171 1.75891,-2.1356094 3.13827,-4.9113352 4.13527,-8.3271778 0.997,-3.413009 1.75607,-7.038447 2.27723,-10.876313 0.52115,-3.843531 0.82988,-7.522783 0.92902,-11.034926 V -85.79698 c 0,-3.69908 -0.47584,-6.426655 -1.42752,-8.179894 -0.95168,-1.758904 -1.90335,-2.923009 -2.85503,-3.489484 -0.94601,-0.566475 -1.41619,-0.849712 -1.41619,-0.849712 v -1.280233 h 15.51008 v 1.280233 c 0,0 -0.47584,0.283237 -1.42752,0.849712 -0.94601,0.566475 -1.89202,1.73058 -2.8437,3.489484 -0.94601,1.753239 -1.41619,4.480814 -1.41619,8.179894 v 51.934396 c 0,1.141447 -0.0736,3.041969 -0.21526,5.698735 -0.14445,2.651102 -0.52682,5.616597 -1.14428,8.893653 -0.61179,3.271391 -1.56063,6.446481 -2.8437,9.5281033 -1.2774,3.0816221 -3.03347,5.6194285 -5.26821,7.6134193 -2.22908,1.98832608 -5.09544,2.97965673 -8.59909,2.97965673 z M 268.62515,-88.221492 v 76.836623 c 0,3.135437 0.47584,5.4126651 1.42752,6.8316841 0.95167,1.4218514 1.89769,2.2970547 2.8437,2.6284424 0.95168,0.3342201 1.42752,0.4984977 1.42752,0.4984977 V 0.00127134 H 253.97612 V -1.4262448 c 0,0 0.47017,-0.1642776 1.41618,-0.4984977 0.95168,-0.3313877 1.89769,-1.183932 2.84371,-2.5604654 0.95167,-1.3737011 1.42751,-3.6735882 1.42751,-6.8996611 v -2.560466 l -20.63101,-66.730714 v 69.29118 c 0,3.135437 0.47018,5.4126651 1.41619,6.8316841 0.95168,1.4218514 1.89769,2.2970547 2.8437,2.6284424 0.95168,0.3342201 1.42752,0.4984977 1.42752,0.4984977 V 0.00127134 H 224.37215 V -1.4262448 c 0,0 0.47584,-0.1642776 1.42752,-0.4984977 0.95167,-0.3313877 1.89769,-1.183932 2.8437,-2.5604654 0.95168,-1.3737011 1.42752,-3.6735882 1.42752,-6.8996611 v -76.836623 c 0,-3.22324 -0.47584,-5.523128 -1.42752,-6.899661 -0.94601,-1.373701 -1.89203,-2.226245 -2.8437,-2.560465 -0.95168,-0.331388 -1.42752,-0.498498 -1.42752,-0.498498 v -1.416187 h 20.34777 v 1.416187 c 0,0 -0.38237,0.09913 -1.14428,0.294567 -0.75624,0.189769 -1.58329,0.759076 -2.48116,1.710753 -0.90069,0.946013 -1.53798,2.554801 -1.91468,4.826364 l 20.48372,65.881003 v -62.754063 c 0,-3.22324 -0.47584,-5.523128 -1.42751,-6.899661 -0.94602,-1.373701 -1.89203,-2.226245 -2.84371,-2.560465 -0.94601,-0.331388 -1.41618,-0.498498 -1.41618,-0.498498 v -1.416187 h 20.34777 v 1.416187 c 0,0 -0.47584,0.16711 -1.42752,0.498498 -0.94601,0.33422 -1.89203,1.186764 -2.8437,2.560465 -0.95168,1.376533 -1.42752,3.676421 -1.42752,6.899661 z m 7.96463,-11.374811 h 35.7219 v 29.445353 h -1.99399 c 0,0 -0.0283,-0.897862 -0.0793,-2.696419 -0.0453,-1.804222 -0.18694,-4.058791 -0.41919,-6.763708 -0.23509,-2.702084 -0.58914,-5.381509 -1.06497,-8.03261 -0.47584,-2.656767 -1.1896,-4.885844 -2.14128,-6.684401 -0.94601,-1.804222 -2.12994,-2.707749 -3.55746,-2.707749 h -0.84971 c -0.75625,0.665607 -1.53798,1.852372 -2.34521,3.557461 -0.81006,1.707921 -1.21225,4.268386 -1.21225,7.681396 v 71.998929 c 0,3.701912 0.47017,6.4294871 1.41618,8.1798938 0.95168,1.753239 1.89769,2.9173444 2.84371,3.4894838 0.95167,0.5664747 1.42751,0.849712 1.42751,0.849712 V 0.00127134 H 284.56575 V -1.2789614 c 0,0 0.47017,-0.2832373 1.41618,-0.849712 0.95168,-0.5721394 1.89769,-1.7362448 2.84371,-3.4894838 0.95167,-1.7504067 1.42751,-4.4779818 1.42751,-8.1798938 V -85.79698 c 0,-3.41301 -0.40503,-5.973475 -1.21225,-7.681396 -0.80156,-1.705089 -1.5833,-2.891854 -2.34521,-3.557461 h -0.84971 c -1.42752,0 -2.61711,0.903527 -3.56879,2.707749 -0.94601,1.798557 -1.65411,4.027634 -2.12994,6.684401 -0.47018,2.651101 -0.82423,5.330526 -1.06498,8.03261 -0.23508,2.704917 -0.37953,4.959486 -0.43052,6.763708 -0.0453,1.798557 -0.068,2.696419 -0.068,2.696419 h -1.994 z M 353.42641,0.00127134 H 314.57758 V -1.4262448 c 0,0 0.47583,-0.2605783 1.42751,-0.781735 0.95168,-0.5211567 1.89769,-1.6569384 2.8437,-3.4101774 0.95168,-1.7504067 1.42752,-4.4779818 1.42752,-8.1798938 V -85.79698 c 0,-3.888849 -0.47584,-6.687233 -1.42752,-8.395154 -0.94601,-1.705089 -1.89202,-2.798385 -2.8437,-3.274224 -0.95168,-0.475839 -1.42751,-0.713758 -1.42751,-0.713758 v -1.416187 h 38.84883 v 29.445353 h -1.99399 c 0,0 -0.0227,-0.897862 -0.068,-2.696419 -0.0453,-1.804222 -0.18977,-4.058791 -0.43052,-6.763708 -0.23509,-2.702084 -0.58914,-5.381509 -1.06497,-8.03261 -0.47584,-2.656767 -1.1896,-4.885844 -2.14128,-6.684401 -0.94601,-1.804222 -2.12711,-2.707749 -3.54613,-2.707749 h -14.9436 v 33.150097 h 11.66938 c 1.04231,0 1.86936,-0.968672 2.48116,-2.91168 0.61745,-1.948673 1.07063,-4.180583 1.35954,-6.695731 0.28607,-2.515147 0.45318,-4.741392 0.49849,-6.6844 0.0453,-1.940176 0.068,-2.91168 0.068,-2.91168 h 1.99399 v 40.978776 h -1.99399 c 0,-0.761908 -0.0227,-2.163933 -0.068,-4.203242 -0.0453,-2.039308 -0.18977,-4.217403 -0.43052,-6.537117 -0.23508,-2.325379 -0.66277,-4.319369 -1.28023,-5.981972 -0.61179,-1.659771 -1.44451,-2.492489 -2.49249,-2.492489 h -11.80533 v 58.7660809 h 14.9436 c 1.41902,0 2.60012,-0.8978623 3.54613,-2.6964194 0.95168,-1.8042217 1.66544,-4.0361319 2.14128,-6.6957305 0.47583,-2.656766 0.82988,-5.336191 1.06497,-8.032611 0.24075,-2.702084 0.3852,-4.956653 0.43052,-6.763707 0.0453,-1.804222 0.068,-2.707749 0.068,-2.707749 h 1.99399 z M 396.54079,-74.694077 c 0,2.560466 -0.23792,5.336191 -0.71375,8.327178 -0.47584,2.985321 -1.30856,5.806365 -2.49249,8.463131 -1.18677,2.651101 -2.82105,4.832029 -4.90567,6.537118 -2.08463,1.707921 -4.78955,2.560465 -8.11192,2.560465 l -8.67839,-0.135954 7.54544,3.976652 13.23285,32.86686 c 1.41902,3.4215066 2.79272,5.8913361 4.12393,7.4094882 1.32839,1.5124873 2.39336,2.4330086 3.19492,2.7643963 0.80723,0.3342201 1.21226,0.4984977 1.21226,0.4984977 V 0.00127134 H 386.71812 L 370.35833,-46.098436 v 32.300385 c 0,3.701912 0.47018,6.4294871 1.41619,8.1798938 0.95168,1.753239 1.89769,2.8890207 2.8437,3.4101774 0.95168,0.5211567 1.42752,0.781735 1.42752,0.781735 V 0.00127134 H 355.69797 V -1.4262448 c 0.19543,-0.090636 0.69393,-0.3965322 1.49549,-0.9176889 0.80723,-0.5211567 1.63712,-1.5181521 2.49249,-2.9909862 0.85255,-1.4728341 1.3737,-3.6764205 1.56347,-6.6164241 v -77.686334 c -0.18977,-2.747402 -0.73358,-4.715902 -1.63144,-5.902666 -0.9007,-1.183932 -1.77874,-1.920349 -2.63978,-2.209251 -0.85537,-0.28607 -1.28023,-0.430521 -1.28023,-0.430521 v -1.416187 h 20.92557 c 3.78972,0 6.94498,0.781735 9.46013,2.345205 2.51515,1.56347 4.5318,3.602779 6.04995,6.117927 1.51815,2.515147 2.60578,5.220064 3.26289,8.111917 0.66278,2.894685 1.04515,5.670411 1.14428,8.327177 z m -19.78129,23.610664 c 2.46983,0 4.43549,-0.897862 5.90266,-2.69642 1.47284,-1.804221 2.58596,-4.05879 3.3422,-6.763707 0.76191,-2.702084 1.26041,-5.407 1.4955,-8.111917 0.24075,-2.702084 0.36254,-4.953821 0.36254,-6.752378 v -0.283237 c 0,-5.407001 -0.62029,-9.579087 -1.85804,-12.51909 -1.23208,-2.945668 -2.67942,-5.033127 -4.33919,-6.26521 -1.65411,-1.22925 -3.10145,-1.988326 -4.3392,-2.277228 -1.23208,-0.28607 -1.8467,-0.430521 -1.8467,-0.430521 h -5.12094 v 46.099708 z m 89.50016,-31.30339 c -1.23208,-4.741393 -3.24873,-8.463131 -6.04995,-11.15955 -2.79555,-2.702084 -5.85451,-4.055959 -9.17689,-4.055959 -3.0363,0 -5.55145,1.280233 -7.54544,3.840698 -1.98833,2.560466 -3.5518,5.834689 -4.69041,9.822671 -1.14145,3.982317 -1.99966,8.19972 -2.57179,12.655044 -0.56648,4.458155 -0.92336,8.584923 -1.06498,12.383136 -0.13595,3.792547 -0.20393,6.780701 -0.20393,8.961629 0,2.183759 0.068,5.197405 0.20393,9.040935 0.14162,3.837866 0.47584,7.98446 0.997,12.439784 0.52682,4.458155 1.35954,8.678391 2.49249,12.666373 1.13861,3.982317 2.70775,7.2565403 4.70174,9.8226705 1.99399,2.5604654 4.55445,3.8406981 7.68139,3.8406981 2.7474,0 5.33053,-1.3028917 7.74938,-3.9086751 2.42451,-2.6114482 4.65642,-6.2425505 6.69573,-10.8876425 2.03931,-4.650757 3.76705,-9.918972 5.1889,-15.804643 h 0.997 v 14.943601 c -1.23208,3.036304 -2.75023,5.956481 -4.55446,8.7576983 -1.79855,2.7955525 -3.98231,5.0727806 -6.54844,6.8316844 -2.56047,1.75323904 -5.73839,2.62844238 -9.52811,2.62844238 -4.45815,0 -8.17989,-1.18393203 -11.17088,-3.55746088 -2.99098,-2.3706964 -5.43532,-5.4523185 -7.33018,-9.2448662 -1.89769,-3.798213 -3.3422,-7.924981 -4.3392,-12.383136 -0.99699,-4.46382 -1.6626,-8.873826 -1.99399,-13.232848 -0.33422,-4.364687 -0.49849,-8.160068 -0.49849,-11.386141 0,-3.22324 0.16427,-7.04128 0.49849,-11.454117 0.33139,-4.410005 0.997,-8.893652 1.99399,-13.448109 0.997,-4.554456 2.41885,-8.797351 4.27122,-12.73435 1.84954,-3.934166 4.29388,-7.109257 7.33019,-9.528104 3.0363,-2.424511 6.7807,-3.63677 11.23885,-3.63677 3.22324,0 6.23406,0.759079 9.02961,2.277231 2.80122,1.518152 5.24555,3.939832 7.33018,7.262205 0.18694,0.09064 0.28324,0.186937 0.28324,0.283238 0,0.09913 0,0.147283 0,0.147283 0.28607,0 0.54665,-0.475839 0.78173,-1.427516 0.24075,-0.951677 0.43336,-2.042141 0.57781,-3.274224 0.14162,-1.22925 0.23792,-2.316881 0.28323,-3.262894 0.0453,-0.951677 0.068,-1.427516 0.068,-1.427516 h 1.99399 v 39.12074 h -2.70775 c 0,0 -0.0227,-0.730752 -0.068,-2.197922 -0.0453,-1.472834 -0.16711,-3.345032 -0.36255,-5.619428 -0.18977,-2.280061 -0.45034,-4.673416 -0.78173,-7.182899 -0.32573,-2.515147 -0.72509,-4.817867 -1.20093,-6.910991 z m 33.28888,83.38506974 c -4.45815,0 -8.23087,-1.18393203 -11.31816,-3.55746084 -3.08162,-2.3706964 -5.57128,-5.4749776 -7.46614,-9.3128429 -1.89769,-3.843531 -3.3422,-8.015617 -4.33919,-12.51909 -0.997,-4.509139 -1.6626,-8.944635 -1.99399,-13.312155 -0.33422,-4.364687 -0.4985,-8.205385 -0.4985,-11.522094 0,-3.322374 0.16428,-7.188564 0.4985,-11.601401 0.33139,-4.410005 0.99699,-8.93897 1.99399,-13.584062 0.99699,-4.650757 2.4415,-8.944635 4.33919,-12.881634 1.89486,-3.934167 4.36186,-7.131916 7.39816,-9.596081 3.03631,-2.469829 6.83169,-3.704746 11.38614,-3.704746 4.45533,0 8.20256,1.234917 11.23886,3.704746 3.03631,2.464165 5.50047,5.687406 7.39816,9.675387 1.90336,3.982317 3.34787,8.27053 4.3392,12.870304 0.99699,4.599775 1.68243,9.106081 2.06196,13.516086 0.38521,4.412837 0.57781,8.279027 0.57781,11.601401 0,3.316709 -0.16711,7.157407 -0.4985,11.522094 -0.33422,4.36752 -0.99699,8.803016 -1.99399,13.312155 -0.997,4.503473 -2.44434,8.675559 -4.3392,12.51909 -1.89769,3.8378653 -4.39017,6.9421465 -7.47746,9.3128429 -3.08162,2.37352881 -6.85151,3.55746084 -11.30684,3.55746084 z m 0,-2.56046544 c 2.65677,0 4.88585,-0.9969954 6.68441,-2.9909862 1.80422,-1.9939908 3.29971,-4.5771152 4.48647,-7.7493731 1.18394,-3.177923 2.11012,-6.619257 2.77573,-10.321168 0.66278,-3.69908 1.16127,-7.330182 1.49549,-10.887643 0.33139,-3.557461 0.54382,-6.709893 0.63446,-9.460127 0.0963,-2.747402 0.14728,-4.693243 0.14728,-5.834689 0,-3.223241 -0.14445,-6.944979 -0.43052,-11.159551 -0.2889,-4.220236 -0.76474,-8.559432 -1.42752,-13.017587 -0.65711,-4.463821 -1.60595,-8.590589 -2.8437,-12.383136 -1.23208,-3.798213 -2.79555,-6.857176 -4.69041,-9.17689 -1.89769,-2.325378 -4.17492,-3.489484 -6.83169,-3.489484 -3.22607,0 -5.85734,1.376534 -7.89665,4.123936 -2.03931,2.750234 -3.6311,6.262377 -4.76972,10.536428 -1.13295,4.268387 -1.96567,8.752034 -2.49249,13.448109 -0.52115,4.69041 -0.85537,9.074924 -0.99699,13.153541 -0.13596,4.078618 -0.20393,7.256541 -0.20393,9.528104 0,1.993991 0.0935,4.820699 0.28323,8.474461 0.18694,3.648097 0.56648,7.585096 1.13295,11.805332 0.57214,4.223068 1.45301,8.279027 2.63978,12.167875 1.18393,3.891681 2.77006,7.069604 4.75838,9.5394335 1.99399,2.4641648 4.50914,3.6934148 7.54544,3.6934148 z m 61.17927,-27.8932123 h 1.99399 V 0.00127134 H 527.43043 V -1.4262448 c 0,0 0.47584,-0.2605783 1.42751,-0.781735 0.95168,-0.5211567 1.89769,-1.6569384 2.84371,-3.4101774 0.95167,-1.7504067 1.42751,-4.4779818 1.42751,-8.1798938 V -85.79698 c 0,-3.69908 -0.47584,-6.426655 -1.42751,-8.179894 -0.94602,-1.758904 -1.89203,-2.923009 -2.84371,-3.489484 -0.95167,-0.566475 -1.42751,-0.849712 -1.42751,-0.849712 v -1.280233 h 20.21181 v 1.280233 c 0,0 -0.45318,0.311561 -1.35954,0.929018 -0.90069,0.611793 -1.82404,1.750407 -2.77572,3.410178 -0.94601,1.662603 -1.41619,4.007808 -1.41619,7.035615 v 84.3820649 h 11.23886 c 1.51815,0 2.72474,-0.8978623 3.62544,-2.6964194 0.90636,-1.8042217 1.62011,-4.0361319 2.14127,-6.6957305 0.52116,-2.656766 0.89786,-5.336191 1.13295,-8.032611 0.24075,-2.702084 0.3852,-4.956653 0.43052,-6.763707 0.0453,-1.804222 0.068,-2.707749 0.068,-2.707749 z m 37.56293,0 h 1.99399 V 0.00127134 H 564.99336 V -1.4262448 c 0,0 0.47584,-0.2605783 1.42752,-0.781735 0.95168,-0.5211567 1.89769,-1.6569384 2.8437,-3.4101774 0.95168,-1.7504067 1.42752,-4.4779818 1.42752,-8.1798938 V -85.79698 c 0,-3.69908 -0.47584,-6.426655 -1.42752,-8.179894 -0.94601,-1.758904 -1.89202,-2.923009 -2.8437,-3.489484 -0.95168,-0.566475 -1.42752,-0.849712 -1.42752,-0.849712 v -1.280233 h 20.21182 v 1.280233 c 0,0 -0.45318,0.311561 -1.35954,0.929018 -0.9007,0.611793 -1.82405,1.750407 -2.77573,3.410178 -0.94601,1.662603 -1.41618,4.007808 -1.41618,7.035615 v 84.3820649 h 11.23885 c 1.51815,0 2.72475,-0.8978623 3.62544,-2.6964194 0.90636,-1.8042217 1.62012,-4.0361319 2.14127,-6.6957305 0.52116,-2.656766 0.89787,-5.336191 1.13295,-8.032611 0.24076,-2.702084 0.38521,-4.956653 0.43052,-6.763707 0.0453,-1.804222 0.068,-2.707749 0.068,-2.707749 z M 641.40513,0.00127134 H 602.5563 V -1.4262448 c 0,0 0.47583,-0.2605783 1.42751,-0.781735 0.95168,-0.5211567 1.89769,-1.6569384 2.8437,-3.4101774 0.95168,-1.7504067 1.42752,-4.4779818 1.42752,-8.1798938 V -85.79698 c 0,-3.888849 -0.47584,-6.687233 -1.42752,-8.395154 -0.94601,-1.705089 -1.89202,-2.798385 -2.8437,-3.274224 -0.95168,-0.475839 -1.42751,-0.713758 -1.42751,-0.713758 v -1.416187 h 38.84883 v 29.445353 h -1.99399 c 0,0 -0.0227,-0.897862 -0.068,-2.696419 -0.0453,-1.804222 -0.18977,-4.058791 -0.43052,-6.763708 -0.23509,-2.702084 -0.58913,-5.381509 -1.06497,-8.03261 -0.47584,-2.656767 -1.1896,-4.885844 -2.14128,-6.684401 -0.94601,-1.804222 -2.12711,-2.707749 -3.54613,-2.707749 h -14.9436 v 33.150097 h 11.66938 c 1.04231,0 1.86936,-0.968672 2.48116,-2.91168 0.61745,-1.948673 1.07063,-4.180583 1.35954,-6.695731 0.28607,-2.515147 0.45318,-4.741392 0.49849,-6.6844 0.0453,-1.940176 0.068,-2.91168 0.068,-2.91168 h 1.99399 v 40.978776 h -1.99399 c 0,-0.761908 -0.0227,-2.163933 -0.068,-4.203242 -0.0453,-2.039308 -0.18977,-4.217403 -0.43052,-6.537117 -0.23508,-2.325379 -0.66277,-4.319369 -1.28023,-5.981972 -0.61179,-1.659771 -1.44451,-2.492489 -2.49249,-2.492489 h -11.80533 v 58.7660809 h 14.9436 c 1.41902,0 2.60012,-0.8978623 3.54613,-2.6964194 0.95168,-1.8042217 1.66544,-4.0361319 2.14128,-6.6957305 0.47584,-2.656766 0.82988,-5.336191 1.06497,-8.032611 0.24075,-2.702084 0.3852,-4.956653 0.43052,-6.763707 0.0453,-1.804222 0.068,-2.707749 0.068,-2.707749 h 1.99399 z M 684.23344,-82.386803 c -1.23208,-4.741393 -3.24873,-8.463131 -6.04994,-11.15955 -2.79556,-2.702084 -5.85452,-4.055959 -9.17689,-4.055959 -3.03631,0 -5.55146,1.280233 -7.54545,3.840698 -1.98832,2.560466 -3.55179,5.834689 -4.69041,9.822671 -1.14144,3.982317 -1.99965,8.19972 -2.57179,12.655044 -0.56648,4.458155 -0.92336,8.584923 -1.06497,12.383136 -0.13596,3.792547 -0.20394,6.780701 -0.20394,8.961629 0,2.183759 0.068,5.197405 0.20394,9.040935 0.14161,3.837866 0.47583,7.98446 0.99699,12.439784 0.52682,4.458155 1.35954,8.678391 2.49249,12.666373 1.13861,3.982317 2.70775,7.2565403 4.70174,9.8226705 1.99399,2.5604654 4.55446,3.8406981 7.6814,3.8406981 2.7474,0 5.33052,-1.3028917 7.74937,-3.9086751 2.42451,-2.6114482 4.65642,-6.2425505 6.69573,-10.8876425 2.03931,-4.650757 3.76706,-9.918972 5.18891,-15.804643 h 0.99699 v 14.943601 c -1.23208,3.036304 -2.75023,5.956481 -4.55445,8.7576983 -1.79856,2.7955525 -3.98232,5.0727806 -6.54845,6.8316844 -2.56047,1.75323904 -5.73839,2.62844238 -9.5281,2.62844238 -4.45816,0 -8.1799,-1.18393203 -11.17088,-3.55746088 -2.99099,-2.3706964 -5.43533,-5.4523185 -7.33019,-9.2448662 -1.89769,-3.798213 -3.3422,-7.924981 -4.33919,-12.383136 -0.997,-4.46382 -1.66261,-8.873826 -1.99399,-13.232848 -0.33422,-4.364687 -0.4985,-8.160068 -0.4985,-11.386141 0,-3.22324 0.16428,-7.04128 0.4985,-11.454117 0.33138,-4.410005 0.99699,-8.893652 1.99399,-13.448109 0.99699,-4.554456 2.41884,-8.797351 4.27122,-12.73435 1.84954,-3.934166 4.29387,-7.109257 7.33018,-9.528104 3.0363,-2.424511 6.7807,-3.63677 11.23886,-3.63677 3.22324,0 6.23405,0.759079 9.0296,2.277231 2.80122,1.518152 5.24556,3.939832 7.33018,7.262205 0.18694,0.09064 0.28324,0.186937 0.28324,0.283238 0,0.09913 0,0.147283 0,0.147283 0.28607,0 0.54665,-0.475839 0.78174,-1.427516 0.24075,-0.951677 0.43335,-2.042141 0.5778,-3.274224 0.14162,-1.22925 0.23792,-2.316881 0.28324,-3.262894 0.0453,-0.951677 0.068,-1.427516 0.068,-1.427516 h 1.994 v 39.12074 h -2.70775 c 0,0 -0.0227,-0.730752 -0.068,-2.197922 -0.0453,-1.472834 -0.16711,-3.345032 -0.36254,-5.619428 -0.18977,-2.280061 -0.45035,-4.673416 -0.78174,-7.182899 -0.32572,-2.515147 -0.72509,-4.817867 -1.20093,-6.910991 z m 7.67574,-17.2095 h 35.72189 v 29.445353 h -1.99399 c 0,0 -0.0283,-0.897862 -0.0793,-2.696419 -0.0453,-1.804222 -0.18694,-4.058791 -0.41919,-6.763708 -0.23509,-2.702084 -0.58913,-5.381509 -1.06497,-8.03261 -0.47584,-2.656767 -1.1896,-4.885844 -2.14128,-6.684401 -0.94601,-1.804222 -2.12994,-2.707749 -3.55746,-2.707749 h -0.84971 c -0.75624,0.665607 -1.53798,1.852372 -2.34521,3.557461 -0.81005,1.707921 -1.21225,4.268386 -1.21225,7.681396 v 71.998929 c 0,3.701912 0.47017,6.4294871 1.41619,8.1798938 0.95167,1.753239 1.89769,2.9173444 2.8437,3.4894838 0.95168,0.5664747 1.42751,0.849712 1.42751,0.849712 V 0.00127134 H 699.88514 V -1.2789614 c 0,0 0.47017,-0.2832373 1.41619,-0.849712 0.95167,-0.5721394 1.89769,-1.7362448 2.8437,-3.4894838 0.95168,-1.7504067 1.42751,-4.4779818 1.42751,-8.1798938 V -85.79698 c 0,-3.41301 -0.40502,-5.973475 -1.21225,-7.681396 -0.80156,-1.705089 -1.5833,-2.891854 -2.34521,-3.557461 h -0.84971 c -1.42751,0 -2.61711,0.903527 -3.56879,2.707749 -0.94601,1.798557 -1.6541,4.027634 -2.12994,6.684401 -0.47018,2.651101 -0.82422,5.330526 -1.06498,8.03261 -0.23508,2.704917 -0.37953,4.959486 -0.43052,6.763708 -0.0453,1.798557 -0.068,2.696419 -0.068,2.696419 h -1.99399 z m 37.98779,1.280233 v -1.280233 h 20.34777 v 1.280233 c 0,0 -0.47584,0.283237 -1.42752,0.849712 -0.94601,0.566475 -1.89203,1.73058 -2.8437,3.489484 -0.94602,1.753239 -1.41619,4.480814 -1.41619,8.179894 v 71.998929 c 0,3.701912 0.47017,6.4294871 1.41619,8.1798938 0.95167,1.753239 1.89769,2.8890207 2.8437,3.4101774 0.95168,0.5211567 1.42752,0.781735 1.42752,0.781735 V 0.00127134 H 729.89697 V -1.4262448 c 0,0 0.47584,-0.2605783 1.42751,-0.781735 0.95168,-0.5211567 1.89769,-1.6569384 2.84371,-3.4101774 0.95167,-1.7504067 1.42751,-4.4779818 1.42751,-8.1798938 V -85.79698 c 0,-3.69908 -0.47584,-6.426655 -1.42751,-8.179894 -0.94602,-1.758904 -1.89203,-2.923009 -2.84371,-3.489484 -0.95167,-0.566475 -1.42751,-0.849712 -1.42751,-0.849712 z m 59.19377,-1.280233 h 15.07955 l -0.13595,1.280233 c 0,0 -0.4985,0.283237 -1.4955,0.849712 -0.99699,0.566475 -2.06763,1.73058 -3.20624,3.489484 -1.13295,1.753239 -1.93735,4.480814 -2.41318,8.179894 l -11.81667,71.998929 c -0.0906,0.566474 -0.13595,1.087631 -0.13595,1.56347 0,0.475838 0,0.951677 0,1.427516 0,2.9400034 0.37671,5.0501215 1.13295,6.3331866 0.76191,1.2774003 1.42752,2.1044533 1.99399,2.481159 0.37671,0.189769 0.70809,0.33422 0.997,0.4305207 0.28607,0.090636 0.43052,0.1359539 0.43052,0.1359539 l 0.28323,1.42751614 h -20.34777 l -0.14728,-1.42751614 c 0,0 0.33139,-0.1869366 0.997,-0.5664746 0.66277,-0.3767057 1.30572,-1.1329494 1.92601,-2.2658987 0.61746,-1.138614 0.92902,-2.8946855 0.92902,-5.2682143 0,-0.6627756 0,-1.3510416 0,-2.0619676 0,-0.716591 -0.0991,-1.453008 -0.29457,-2.209251 L 760.49509,-85.79698 c -0.57497,-3.69908 -1.50399,-6.426655 -2.78705,-8.179894 -1.2774,-1.758904 -2.43584,-2.923009 -3.47815,-3.489484 -1.04232,-0.566475 -1.56347,-0.849712 -1.56347,-0.849712 l -0.14729,-1.280233 h 20.21182 l 0.28323,1.280233 c 0,0 -0.31156,0.189769 -0.92901,0.566475 -0.6118,0.379538 -1.25191,1.161273 -1.91469,2.345205 -0.66561,1.186764 -0.99699,3.013645 -0.99699,5.483474 0,0.665608 0.0227,1.331216 0.068,1.993991 0.0453,0.657111 0.11613,1.368037 0.21526,2.129945 l 12.0999,70.85465 11.65805,-70.85465 c 0.0963,-0.475839 0.14728,-0.974336 0.14728,-1.495493 0,-0.521157 0,-1.019655 0,-1.495493 0,-2.747402 -0.35687,-4.80937 -1.06497,-6.185904 -0.71092,-1.373701 -1.44734,-2.271563 -2.20925,-2.696419 -0.75624,-0.430521 -1.13295,-0.645781 -1.13295,-0.645781 z M 845.29352,0.00127134 H 806.44469 V -1.4262448 c 0,0 0.47584,-0.2605783 1.42751,-0.781735 0.95168,-0.5211567 1.89769,-1.6569384 2.84371,-3.4101774 0.95167,-1.7504067 1.42751,-4.4779818 1.42751,-8.1798938 V -85.79698 c 0,-3.888849 -0.47584,-6.687233 -1.42751,-8.395154 -0.94602,-1.705089 -1.89203,-2.798385 -2.84371,-3.274224 -0.95167,-0.475839 -1.42751,-0.713758 -1.42751,-0.713758 v -1.416187 h 38.84883 v 29.445353 h -1.99399 c 0,0 -0.0227,-0.897862 -0.068,-2.696419 -0.0453,-1.804222 -0.18977,-4.058791 -0.43052,-6.763708 -0.23509,-2.702084 -0.58913,-5.381509 -1.06497,-8.03261 -0.47584,-2.656767 -1.1896,-4.885844 -2.14128,-6.684401 -0.94601,-1.804222 -2.12711,-2.707749 -3.54613,-2.707749 h -14.9436 v 33.150097 h 11.66938 c 1.04231,0 1.86937,-0.968672 2.48116,-2.91168 0.61746,-1.948673 1.07063,-4.180583 1.35954,-6.695731 0.28607,-2.515147 0.45318,-4.741392 0.49849,-6.6844 0.0453,-1.940176 0.068,-2.91168 0.068,-2.91168 h 1.99399 v 40.978776 h -1.99399 c 0,-0.761908 -0.0227,-2.163933 -0.068,-4.203242 -0.0453,-2.039308 -0.18976,-4.217403 -0.43052,-6.537117 -0.23508,-2.325379 -0.66277,-4.319369 -1.28023,-5.981972 -0.61179,-1.659771 -1.44451,-2.492489 -2.49249,-2.492489 h -11.80533 v 58.7660809 h 14.9436 c 1.41902,0 2.60012,-0.8978623 3.54613,-2.6964194 0.95168,-1.8042217 1.66544,-4.0361319 2.14128,-6.6957305 0.47584,-2.656766 0.82988,-5.336191 1.06497,-8.032611 0.24075,-2.702084 0.3852,-4.956653 0.43052,-6.763707 0.0453,-1.804222 0.068,-2.707749 0.068,-2.707749 h 1.99399 z m 0,0"/>
    </g>
  </g>
</svg>
